<svg width="21" height="20" viewBox="0 0 21 20" fill="none" xmlns="http://www.w3.org/2000/svg">
<circle cx="10.5" cy="10" r="9.5" stroke="#F5F5DC"/>
<path d="M9.1365 14.1565C9.09139 14.2042 9.05612 14.2604 9.03271 14.3218C9.00931 14.3831 8.99821 14.4485 9.00007 14.5141C9.00193 14.5798 9.0167 14.6444 9.04354 14.7044C9.07038 14.7643 9.10876 14.8184 9.1565 14.8635C9.20423 14.9086 9.26039 14.9439 9.32175 14.9673C9.38311 14.9907 9.44849 15.0018 9.51414 14.9999C9.57979 14.9981 9.64443 14.9833 9.70438 14.9565C9.76432 14.9296 9.81839 14.8912 9.8635 14.8435L14.1135 10.3435C14.2013 10.2507 14.2502 10.1278 14.2502 10C14.2502 9.87224 14.2013 9.74933 14.1135 9.6565L9.8635 5.156C9.81869 5.10722 9.76463 5.06783 9.70446 5.04011C9.6443 5.0124 9.57923 4.99692 9.51303 4.99457C9.44684 4.99222 9.38083 5.00304 9.31885 5.02641C9.25688 5.04979 9.20016 5.08524 9.152 5.13072C9.10384 5.1762 9.06519 5.23079 9.03831 5.29133C9.01143 5.35187 8.99684 5.41714 8.9954 5.48337C8.99396 5.54959 9.00569 5.61544 9.02991 5.67709C9.05413 5.73874 9.09036 5.79497 9.1365 5.8425L13.0625 10L9.1365 14.1565Z" fill="#F5F5DC"/>
</svg>
