<svg width="40" height="40" viewBox="0 0 40 40" fill="none" xmlns="http://www.w3.org/2000/svg">
<g clip-path="url(#clip0_1_188)">
<path fill-rule="evenodd" clip-rule="evenodd" d="M38.4657 27.6914C38.4657 36.1828 30.7714 40 20 40C9.22859 40 1.5343 36.1828 1.5343 27.7514C1.5343 18.52 6.15144 13.8428 15.3829 9.16571L12.1143 3.07714C11.9193 2.77218 11.8107 2.42001 11.8001 2.05818C11.7895 1.69635 11.8773 1.33842 12.0541 1.02258C12.231 0.706726 12.4902 0.444793 12.8042 0.264706C13.1182 0.0846181 13.4752 -0.00687103 13.8372 -6.46221e-06H26.8857C27.225 0.0086735 27.5564 0.103527 27.8489 0.275627C28.1413 0.447728 28.3852 0.691414 28.5575 0.983754C28.7299 1.27609 28.8249 1.60747 28.8339 1.9467C28.8428 2.28593 28.7653 2.62185 28.6086 2.92285L24.6172 9.16571C33.8457 13.78 38.4657 18.4571 38.4657 27.6914ZM14.1629 18.5714H18.9714C19.3714 18.6914 19.8743 18.9143 20.2772 19.2857C20.5786 19.5593 20.8016 19.9085 20.9229 20.2971H14.1657C13.9781 20.2971 13.7924 20.3341 13.619 20.4059C13.4457 20.4777 13.2882 20.5829 13.1556 20.7156C13.0229 20.8482 12.9177 21.0057 12.8459 21.179C12.7741 21.3523 12.7372 21.5381 12.7372 21.7257C12.7372 21.9133 12.7741 22.0991 12.8459 22.2724C12.9177 22.4457 13.0229 22.6032 13.1556 22.7359C13.2882 22.8685 13.4457 22.9737 13.619 23.0455C13.7924 23.1173 13.9781 23.1543 14.1657 23.1543H20.4714C19.9805 23.6997 19.3578 24.1099 18.6629 24.3457C17.7672 24.6729 16.8246 24.8533 15.8714 24.88H15.8286C15.5378 24.8802 15.254 24.9692 15.0151 25.1351C14.7762 25.3009 14.5937 25.5357 14.4918 25.8081C14.3899 26.0805 14.3736 26.3775 14.445 26.6594C14.5164 26.9413 14.6722 27.1947 14.8914 27.3857L14.8972 27.3914L14.9114 27.4L14.9486 27.4343C15.1513 27.6063 15.36 27.7711 15.5743 27.9286C18.0381 29.7684 20.8399 31.1052 23.82 31.8629C24.0036 31.9132 24.1954 31.9263 24.3842 31.9015C24.573 31.8767 24.7549 31.8143 24.9192 31.7182C25.0835 31.6221 25.227 31.4941 25.3411 31.3417C25.4553 31.1893 25.5378 31.0157 25.5839 30.8309C25.63 30.6462 25.6387 30.4542 25.6095 30.266C25.5803 30.0779 25.5138 29.8975 25.4139 29.7354C25.3139 29.5734 25.1826 29.4329 25.0277 29.3223C24.8727 29.2117 24.6972 29.1332 24.5114 29.0914C22.7638 28.6431 21.0827 27.9668 19.5114 27.08L19.6657 27.0229C20.6314 26.66 21.6943 26.0828 22.5229 25.1486C23.0229 24.5914 23.4143 23.9257 23.6572 23.1543H25.8343C26.2132 23.1543 26.5765 23.0038 26.8445 22.7359C27.1124 22.4679 27.2629 22.1046 27.2629 21.7257C27.2629 21.3468 27.1124 20.9835 26.8445 20.7156C26.5765 20.4476 26.2132 20.2971 25.8343 20.2971H23.8514C23.7611 19.6942 23.5699 19.1108 23.2857 18.5714H25.8343C26.2132 18.5714 26.5765 18.4209 26.8445 18.153C27.1124 17.8851 27.2629 17.5217 27.2629 17.1428C27.2629 16.764 27.1124 16.4006 26.8445 16.1327C26.5765 15.8648 26.2132 15.7143 25.8343 15.7143H14.1657C13.7868 15.7143 13.4235 15.8648 13.1556 16.1327C12.8877 16.4006 12.7372 16.764 12.7372 17.1428C12.7372 17.5217 12.8877 17.8851 13.1556 18.153C13.4235 18.4209 13.7868 18.5714 14.1657 18.5714H14.1629Z" fill="#027B83"/>
</g>
<defs>
<clipPath id="clip0_1_188">
<rect width="40" height="40" fill="white"/>
</clipPath>
</defs>
</svg>
