<svg width="12" height="12" viewBox="0 0 12 12" fill="none" xmlns="http://www.w3.org/2000/svg">
<path d="M5.6365 10.1566C5.59139 10.2044 5.55613 10.2605 5.53272 10.3219C5.50931 10.3832 5.49822 10.4486 5.50008 10.5143C5.50193 10.5799 5.5167 10.6446 5.54354 10.7045C5.57038 10.7644 5.60876 10.8185 5.6565 10.8636C5.70424 10.9087 5.76039 10.944 5.82175 10.9674C5.88312 10.9908 5.94849 11.0019 6.01414 11C6.07979 10.9982 6.14444 10.9834 6.20438 10.9566C6.26432 10.9297 6.31839 10.8914 6.3635 10.8436L10.6135 6.34362C10.7013 6.25079 10.7502 6.12788 10.7502 6.00012C10.7502 5.87236 10.7013 5.74945 10.6135 5.65662L6.3635 1.15612C6.31869 1.10734 6.26463 1.06795 6.20447 1.04024C6.1443 1.01252 6.07924 0.997042 6.01304 0.99469C5.94684 0.992338 5.88084 1.00316 5.81886 1.02654C5.75688 1.04991 5.70016 1.08536 5.652 1.13084C5.60384 1.17632 5.5652 1.23091 5.53831 1.29145C5.51143 1.35199 5.49685 1.41726 5.4954 1.48349C5.49396 1.54971 5.50569 1.61556 5.52991 1.67721C5.55413 1.73886 5.59037 1.79509 5.6365 1.84262L9.5625 6.00012L5.6365 10.1566Z" fill="#027B83"/>
</svg>
