<svg width="40" height="40" viewBox="0 0 40 40" fill="none" xmlns="http://www.w3.org/2000/svg">
<path d="M18.335 16.6666H21.6683V25H18.335V16.6666ZM18.3333 26.6666H21.6667V30H18.3333V26.6666Z" fill="#005F83"/>
<path d="M22.9467 6.99998C22.3667 5.90831 21.2367 5.22998 20 5.22998C18.7633 5.22998 17.6333 5.90831 17.0533 7.00165L4.82333 30.1066C4.55259 30.6142 4.41852 31.1835 4.4343 31.7586C4.45008 32.3336 4.61516 32.8947 4.91333 33.3866C5.20733 33.8811 5.62545 34.2901 6.12625 34.573C6.62705 34.856 7.19312 35.0032 7.76833 35H32.2317C33.4117 35 34.48 34.3966 35.0883 33.3866C35.3865 32.8947 35.5516 32.3336 35.5674 31.7586C35.5831 31.1835 35.4491 30.6142 35.1783 30.1066L22.9467 6.99998ZM7.76833 31.6666L20 8.56165L32.24 31.6666H7.76833Z" fill="#005F83"/>
</svg>
