<svg width="60" height="60" viewBox="0 0 60 60" fill="none" xmlns="http://www.w3.org/2000/svg">
<path d="M20.9125 25L28 20H36.73L34 12.5H27.5V7.5H37.5L40.23 15H50V22.5H42.96L46.6 32.505C49.3619 32.5928 51.9949 33.694 53.9969 35.5987C55.9989 37.5034 57.2299 40.0783 57.4551 42.8324C57.6803 45.5865 56.884 48.3272 55.2181 50.5318C53.5521 52.7364 51.133 54.2508 48.4221 54.7862C45.7112 55.3215 42.898 54.8404 40.519 53.4346C38.1401 52.0287 36.3617 49.7965 35.5231 47.1635C34.6845 44.5306 34.8443 41.681 35.9719 39.1583C37.0996 36.6356 39.1163 34.6161 41.6375 33.485L38.5475 25H36.18L32.225 39.675L24.9125 42.3475C24.9708 42.8075 25 43.275 25 43.75C24.9994 45.8123 24.4319 47.8348 23.3595 49.5964C22.2871 51.358 20.7511 52.791 18.9194 53.7386C17.0876 54.6862 15.0307 55.1121 12.9733 54.9698C10.9158 54.8274 8.93714 54.1222 7.25343 52.9312C5.56971 51.7403 4.24577 50.1094 3.42628 48.2169C2.6068 46.3243 2.32331 44.2429 2.6068 42.2002C2.89029 40.1574 3.72985 38.2319 5.03372 36.634C6.3376 35.0362 8.05561 33.8274 10 33.14V30H5V25H20.9125ZM13.75 50C15.4076 50 16.9973 49.3415 18.1694 48.1694C19.3415 46.9973 20 45.4076 20 43.75C20 42.0924 19.3415 40.5027 18.1694 39.3306C16.9973 38.1585 15.4076 37.5 13.75 37.5C12.0924 37.5 10.5027 38.1585 9.33059 39.3306C8.15848 40.5027 7.5 42.0924 7.5 43.75C7.5 45.4076 8.15848 46.9973 9.33059 48.1694C10.5027 49.3415 12.0924 50 13.75 50ZM46.25 50C47.9076 50 49.4973 49.3415 50.6694 48.1694C51.8415 46.9973 52.5 45.4076 52.5 43.75C52.5 42.0924 51.8415 40.5027 50.6694 39.3306C49.4973 38.1585 47.9076 37.5 46.25 37.5C44.5924 37.5 43.0027 38.1585 41.8306 39.3306C40.6585 40.5027 40 42.0924 40 43.75C40 45.4076 40.6585 46.9973 41.8306 48.1694C43.0027 49.3415 44.5924 50 46.25 50Z" fill="#007B83"/>
</svg>
