<svg width="30" height="30" viewBox="0 0 30 30" fill="none" xmlns="http://www.w3.org/2000/svg">
<path d="M29.7262 2.17254C30.0925 2.53879 30.0912 3.17379 29.7225 3.70129L24.0925 11.7625C23.5925 12.4813 22.64 12.6888 22.14 12.19L20.9662 11.015L19.6187 12.3625L17.6625 10.4075L19.01 9.06004L17.8362 7.88504C17.3362 7.38504 17.5437 6.43379 18.2625 5.93254L26.325 0.302539C26.8512 -0.064961 27.4875 -0.0662115 27.8537 0.300039L29.7262 2.17254ZM9.42999 16.685L13.3425 20.5975L4.34249 29.5975C4.08247 29.8563 3.73057 30.0016 3.36374 30.0016C2.9969 30.0016 2.645 29.8563 2.38499 29.5975L0.429985 27.64C0.1716 27.3801 0.0265727 27.0284 0.0265727 26.6619C0.0265727 26.2954 0.1716 25.9437 0.429985 25.6838L9.42999 16.685ZM29.57 25.8475C29.828 26.1074 29.9728 26.4588 29.9728 26.825C29.9728 27.1913 29.828 27.5426 29.57 27.8025L27.8037 29.57C27.5437 29.8288 27.1918 29.9741 26.825 29.9741C26.4582 29.9741 26.1062 29.8288 25.8462 29.57L8.97624 12.7C6.96748 13.4913 4.61249 13.2513 2.81874 11.9825C1.76428 11.2489 0.947819 10.2224 0.470207 9.02997C-0.00740467 7.8375 -0.125247 6.53124 0.131236 5.27254C0.233736 4.77004 0.872485 4.59379 1.23499 4.95754L3.78374 7.50754C4.29624 8.02004 5.13374 8.02004 5.64499 7.50754L7.50748 5.64504C8.01999 5.13379 8.01999 4.29629 7.50748 3.78379L4.96249 1.23754C4.59499 0.870039 4.78124 0.228789 5.28999 0.127539C6.35103 -0.0864237 7.44853 -0.034614 8.4847 0.278353C9.52087 0.59132 10.4635 1.15573 11.2287 1.92129C12.1326 2.82656 12.7527 3.97584 13.0132 5.2283C13.2736 6.48076 13.163 7.78199 12.695 8.97254L29.57 25.8475Z" fill="#027B83"/>
</svg>
