<svg width="52" height="52" viewBox="0 0 52 52" fill="none" xmlns="http://www.w3.org/2000/svg">
<path fill-rule="evenodd" clip-rule="evenodd" d="M35.123 15.8781C35.4676 16.0693 35.7711 16.3266 36.0163 16.6351C36.2614 16.9437 36.4434 17.2975 36.5518 17.6764C36.6601 18.0553 36.6928 18.4518 36.6479 18.8433C36.603 19.2348 36.4814 19.6136 36.29 19.9581L27.956 34.9581C27.7645 35.3025 27.5071 35.6057 27.1985 35.8506C26.8898 36.0954 26.5359 36.2771 26.1571 36.3851C25.3919 36.6034 24.5714 36.5088 23.876 36.1221C23.5317 35.9307 23.2284 35.6733 22.9836 35.3646C22.7387 35.0559 22.5571 34.7021 22.449 34.3232C22.2307 33.5581 22.3253 32.7375 22.712 32.0421L31.043 17.0421C31.2344 16.6978 31.4919 16.3946 31.8005 16.1497C32.1092 15.9049 32.463 15.7232 32.8419 15.6151C33.2208 15.507 33.6172 15.4746 34.0086 15.5197C34.4 15.5649 34.7787 15.6867 35.123 15.8781Z" fill="#027B83"/>
<path fill-rule="evenodd" clip-rule="evenodd" d="M14.66 24.959C15.1571 24.3383 15.8803 23.9403 16.6706 23.8526C17.461 23.7648 18.2539 23.9944 18.875 24.491L27.209 31.157C27.5167 31.4032 27.7729 31.7077 27.9629 32.0529C28.1529 32.3981 28.2731 32.7774 28.3166 33.1691C28.36 33.5608 28.3259 33.9572 28.2162 34.3357C28.1064 34.7142 27.9232 35.0673 27.677 35.375C27.4308 35.6827 27.1264 35.9389 26.7811 36.1289C26.4359 36.319 26.0566 36.4391 25.6649 36.4826C25.2732 36.526 24.8768 36.4919 24.4984 36.3822C24.1199 36.2725 23.7667 36.0892 23.459 35.843L15.125 29.177C14.8172 28.9309 14.5609 28.6265 14.3708 28.2812C14.1807 27.936 14.0605 27.5567 14.0171 27.165C13.9736 26.7733 14.0077 26.3768 14.1175 25.9983C14.2274 25.6198 14.4137 25.2667 14.66 24.959Z" fill="#027B83"/>
<path fill-rule="evenodd" clip-rule="evenodd" d="M27.41 7.07609C27.0391 6.70786 26.5376 6.50121 26.015 6.50121C25.4923 6.50121 24.9909 6.70786 24.62 7.07609C21.899 9.79409 17.543 11.4681 13.712 11.2761C13.4356 11.2596 13.1589 11.3022 12.9003 11.401C12.6416 11.4998 12.407 11.6526 12.212 11.8491C12.0233 12.0363 11.8749 12.26 11.7759 12.5066C11.6768 12.7532 11.6292 13.0174 11.636 13.2831C11.678 15.4431 11.135 17.6001 10.421 19.3731C9.707 21.1491 8.603 23.0781 7.076 24.6081C6.70777 24.979 6.50112 25.4804 6.50112 26.0031C6.50112 26.5257 6.70777 27.0272 7.076 27.3981C9.755 30.0801 11.558 34.3011 11.636 38.0961C11.6441 38.605 11.8508 39.0905 12.212 39.4491C12.5564 39.7969 13.019 40.0026 13.508 40.0251C15.623 40.1301 17.726 40.7541 19.487 41.5341C21.251 42.3171 23.123 43.4571 24.617 44.9541C24.9879 45.3223 25.4893 45.529 26.012 45.529C26.5346 45.529 27.0361 45.3223 27.407 44.9541C28.904 43.4571 30.776 42.3171 32.537 41.5341C34.301 40.7541 36.407 40.1301 38.516 40.0251C39.005 40.0026 39.4676 39.7969 39.812 39.4491C40.1743 39.091 40.3821 38.6054 40.391 38.0961C40.469 34.3011 42.272 30.0801 44.951 27.3981C45.3192 27.0272 45.5259 26.5257 45.5259 26.0031C45.5259 25.4804 45.3192 24.979 44.951 24.6081C43.421 23.0781 42.32 21.1491 41.606 19.3731C40.892 17.6001 40.346 15.4431 40.391 13.2831C40.3974 13.0172 40.3493 12.7528 40.2497 12.5062C40.1502 12.2596 40.0012 12.036 39.812 11.8491C39.6176 11.6524 39.3836 11.4993 39.1255 11.4C38.8674 11.3007 38.5911 11.2575 38.315 11.2731C34.481 11.4681 30.125 9.79409 27.41 7.07609ZM5.639 13.4001C5.684 15.6771 4.445 18.7551 2.834 20.3631C1.33912 21.8594 0.49942 23.888 0.49942 26.0031C0.49942 28.1182 1.33912 30.1468 2.834 31.6431C4.424 33.2271 5.594 35.9751 5.639 38.2191C5.681 40.2051 6.458 42.1791 7.973 43.6911C9.37074 45.0917 11.2406 45.9207 13.217 46.0161C15.59 46.1361 18.698 47.5161 20.378 49.1961C21.8742 50.6901 23.9021 51.5292 26.0165 51.5292C28.1309 51.5292 30.1588 50.6901 31.655 49.1961C33.335 47.5161 36.443 46.1361 38.816 46.0161C40.7924 45.9207 42.6623 45.0917 44.06 43.6911C45.5157 42.2374 46.3513 40.276 46.391 38.2191C46.439 35.9751 47.609 33.2271 49.196 31.6401C50.69 30.1439 51.5291 28.116 51.5291 26.0016C51.5291 23.8872 50.69 21.8593 49.196 20.3631C47.588 18.7551 46.346 15.6771 46.394 13.4031C46.4166 12.3294 46.2214 11.2623 45.8203 10.2662C45.4191 9.27002 44.8203 8.36546 44.06 7.60709C43.272 6.81701 42.3265 6.20167 41.285 5.80109C40.2435 5.40052 39.1293 5.22368 38.015 5.28209C35.873 5.39009 33.17 4.35209 31.655 2.83409C30.1587 1.33921 28.1301 0.499512 26.015 0.499512C23.8999 0.499512 21.8713 1.33921 20.375 2.83409C18.863 4.34909 16.157 5.39009 14.015 5.28209C12.9011 5.22411 11.7876 5.40115 10.7466 5.80172C9.70567 6.20228 8.76066 6.8174 7.973 7.60709C7.21303 8.36511 6.61444 9.26918 6.21331 10.2648C5.81217 11.2604 5.61681 12.3269 5.639 13.4001Z" fill="#027B83"/>
</svg>
