<svg width="40" height="40" viewBox="0 0 40 40" fill="none" xmlns="http://www.w3.org/2000/svg">
<g clip-path="url(#clip0_1_112)">
<path d="M39.1767 5.63002C39.0624 5.34307 38.6899 5.26893 38.4714 5.48737L33.8106 10.1481C33.3081 10.6507 32.4931 10.6507 31.9906 10.1481L29.8517 8.00932C29.3492 7.50674 29.3492 6.69182 29.8517 6.18924L34.5124 1.52854C34.7319 1.30901 34.6548 0.936507 34.3663 0.821742C31.2694 -0.410368 27.6016 0.225961 25.0945 2.73159C23.819 3.99954 22.9739 5.63605 22.6785 7.41015C22.3831 9.18424 22.6523 11.0063 23.4481 12.6192L12.4037 23.6636C9.18923 22.0846 5.19462 22.6315 2.52103 25.3051C0.0129029 27.8131 -0.623582 31.4838 0.610793 34.5823C0.72509 34.8692 1.09767 34.9434 1.31611 34.7249L5.97689 30.0642C6.47947 29.5616 7.29439 29.5616 7.79697 30.0642L9.93579 32.203C10.4384 32.7056 10.4384 33.5205 9.93579 34.0231L5.27517 38.6838C5.05564 38.9033 5.13275 39.2758 5.42126 39.3906C8.51829 40.6228 12.186 39.9864 14.6931 37.4808C15.9687 36.2129 16.8138 34.5763 17.1092 32.8022C17.4046 31.0282 17.1354 29.2061 16.3395 27.5932L27.3839 16.5489C30.5984 18.1279 34.593 17.581 37.2666 14.9074C39.7746 12.3992 40.4111 8.72862 39.1767 5.63002Z" fill="#027B83"/>
</g>
<defs>
<clipPath id="clip0_1_112">
<rect width="40" height="40" fill="white"/>
</clipPath>
</defs>
</svg>
