<svg width="24" height="24" viewBox="0 0 24 24" fill="none" xmlns="http://www.w3.org/2000/svg">
<g clip-path="url(#clip0_1_155)">
<path d="M15.8 6.93994C15.7123 6.94045 15.6253 6.92364 15.5441 6.89046C15.4628 6.85728 15.389 6.8084 15.3267 6.74661L10.3733 1.79328C10.2487 1.66597 10.1797 1.49437 10.1816 1.31621C10.1835 1.13805 10.256 0.96793 10.3833 0.843278C10.5106 0.718626 10.6822 0.649651 10.8604 0.651527C11.0386 0.653402 11.2087 0.725974 11.3333 0.853278L16.2933 5.80661C16.3851 5.9002 16.4472 6.01875 16.4719 6.14745C16.4967 6.27615 16.4829 6.40928 16.4324 6.53021C16.3819 6.65114 16.2969 6.7545 16.188 6.82737C16.079 6.90025 15.951 6.9394 15.82 6.93994H15.8ZM7.90666 14.8333C7.90717 14.7455 7.89036 14.6586 7.85718 14.5773C7.824 14.4961 7.77512 14.4222 7.71333 14.3599L2.76 9.40661C2.63446 9.28108 2.4642 9.21055 2.28666 9.21055C2.10913 9.21055 1.93887 9.28108 1.81333 9.40661C1.6878 9.53215 1.61727 9.70241 1.61727 9.87994C1.61727 10.0575 1.6878 10.2277 1.81333 10.3533L6.76666 15.3333C6.82864 15.3958 6.90237 15.4454 6.98361 15.4792C7.06485 15.5131 7.15199 15.5305 7.24 15.5305C7.32801 15.5305 7.41514 15.5131 7.49638 15.4792C7.57762 15.4454 7.65136 15.3958 7.71333 15.3333C7.77841 15.2679 7.82919 15.1896 7.86247 15.1036C7.89575 15.0175 7.9108 14.9255 7.90666 14.8333ZM14.62 22.6666H2C1.89502 22.6705 1.79059 22.6496 1.69524 22.6055C1.59989 22.5614 1.51632 22.4954 1.45133 22.4128C1.38633 22.3303 1.34177 22.2336 1.32126 22.1305C1.30076 22.0275 1.30489 21.9211 1.33333 21.8199L2.08666 19.1533C2.12699 19.0091 2.21469 18.8826 2.33562 18.7944C2.45656 18.7061 2.6037 18.6611 2.75333 18.6666H13.8667C14.0163 18.6611 14.1634 18.7061 14.2844 18.7944C14.4053 18.8826 14.493 19.0091 14.5333 19.1533L15.2867 21.8199C15.3136 21.9188 15.3174 22.0226 15.2978 22.1232C15.2781 22.2238 15.2355 22.3185 15.1733 22.3999C15.1092 22.4855 15.0255 22.5544 14.9292 22.6008C14.8329 22.6472 14.7269 22.6698 14.62 22.6666ZM2.87333 21.3333H13.7333L13.3333 19.9999H3.24666L2.87333 21.3333ZM22.0733 18.2933L12.74 8.95994L14.3133 7.38661L9.68 2.75328L3.72 8.71328L8.34 13.3333L9.90666 11.7733L19.24 21.1066C19.615 21.4811 20.1233 21.6915 20.6533 21.6915C21.1833 21.6915 21.6917 21.4811 22.0667 21.1066C22.438 20.733 22.647 20.2281 22.6483 19.7013C22.6495 19.1746 22.4429 18.6686 22.0733 18.2933ZM5.6 8.71328L9.68 4.66661L12.42 7.40661L8.34 11.4799L5.6 8.71328ZM21.1267 20.1799C21.0018 20.3041 20.8328 20.3738 20.6567 20.3738C20.4805 20.3738 20.3116 20.3041 20.1867 20.1799L10.8533 10.8466L11.7933 9.90661L21.1267 19.2399C21.2508 19.3649 21.3205 19.5338 21.3205 19.7099C21.3205 19.8861 21.2508 20.055 21.1267 20.1799Z" fill="#027B83"/>
</g>
<defs>
<clipPath id="clip0_1_155">
<rect width="24" height="24" fill="white"/>
</clipPath>
</defs>
</svg>
