<svg width="40" height="40" viewBox="0 0 40 40" fill="none" xmlns="http://www.w3.org/2000/svg">
<path d="M36.6667 28.3367C36.6665 30.6161 35.8877 32.8271 34.4591 34.6033C33.0305 36.3796 31.038 37.6144 28.8117 38.1034L27.7483 34.9134C28.7222 34.7533 29.6483 34.3791 30.46 33.8176C31.2716 33.2562 31.9484 32.5215 32.4417 31.6667H28.3333C27.4493 31.6667 26.6014 31.3155 25.9763 30.6904C25.3512 30.0653 25 29.2174 25 28.3334V21.6667C25 20.7827 25.3512 19.9348 25.9763 19.3097C26.6014 18.6846 27.4493 18.3334 28.3333 18.3334H33.23C32.8233 15.1115 31.2549 12.1488 28.819 10.0012C26.3832 7.85351 23.2474 6.6685 20 6.6685C16.7526 6.6685 13.6168 7.85351 11.181 10.0012C8.74513 12.1488 7.17672 15.1115 6.77 18.3334H11.6667C12.5507 18.3334 13.3986 18.6846 14.0237 19.3097C14.6488 19.9348 15 20.7827 15 21.6667V28.3334C15 29.2174 14.6488 30.0653 14.0237 30.6904C13.3986 31.3155 12.5507 31.6667 11.6667 31.6667H6.66667C5.78261 31.6667 4.93476 31.3155 4.30964 30.6904C3.68452 30.0653 3.33333 29.2174 3.33333 28.3334V20C3.33333 10.795 10.795 3.33337 20 3.33337C29.205 3.33337 36.6667 10.795 36.6667 20V28.3367ZM33.3333 28.3334V21.6667H28.3333V28.3334H33.3333ZM6.66667 21.6667V28.3334H11.6667V21.6667H6.66667Z" fill="#027B83"/>
</svg>
