<svg width="40" height="40" viewBox="0 0 40 40" fill="none" xmlns="http://www.w3.org/2000/svg">
<path d="M20 1.79688C19.7109 1.79688 19.4219 1.80469 19.1328 1.81797L19.1953 3.22266C19.4609 3.21016 19.7266 3.20312 20 3.20312C29.2812 3.20312 36.7969 10.7188 36.7969 20C36.7969 29.2812 29.2812 36.7969 20 36.7969C13 36.7969 7.00391 32.5234 4.48047 26.4375L6.63906 25.7891L2.85547 23.1094L1.36719 27.3672L3.12891 26.8438C5.83437 33.5 12.375 38.2031 20 38.2031C30.0469 38.2031 38.2031 30.0469 38.2031 20C38.2031 9.95312 30.0469 1.79688 20 1.79688ZM17.5938 1.95625C16.5547 2.09297 15.5547 2.31563 14.5781 2.61875L15.0156 3.95391C15.9062 3.67734 16.8359 3.47344 17.7812 3.34844L17.5938 1.95625ZM13.1406 3.1375C12.1719 3.53203 11.25 4.00625 10.375 4.55312L11.1172 5.74141C11.9219 5.23828 12.7734 4.80156 13.6641 4.43906L13.1406 3.1375ZM9.09375 5.42969C8.27357 6.04441 7.50655 6.72703 6.80078 7.47031L7.82031 8.42969C8.46875 7.74453 9.17969 7.11641 9.92969 6.55L9.55469 6.03672L9.09375 5.42969ZM14.5234 6.1L14.1797 7.4625L31.1328 11.7969L31.4766 10.4375L14.5234 6.1ZM5.78672 8.63281C5.14687 9.42969 4.57266 10.2891 4.07266 11.1875L5.29531 11.875C5.75703 11.0391 6.28672 10.25 6.87813 9.50781L5.78672 8.63281ZM15.7578 9.32031C15.4531 11.3516 15.9766 13.6328 16.8672 15.5078C17.3672 16.5547 17.9766 17.4766 18.5781 18.1484C18.9062 18.5156 19.2344 18.7969 19.5312 19L19.1094 20.6562C18.75 20.6875 18.3281 20.7812 17.8594 20.9453C17.0078 21.2422 16.0312 21.7578 15.0938 22.4375C13.4062 23.6563 11.8594 25.3984 11.1562 27.3281L24.2422 30.6797C24.5469 28.6484 24.0234 26.3672 23.1328 24.4922C22.6328 23.4453 22.0234 22.5234 21.4219 21.8516C21.0938 21.4844 20.7656 21.2031 20.4688 21L20.8906 19.3438C21.2422 19.3047 21.6719 19.2188 22.1406 19.0547C22.9922 18.7578 23.9688 18.2422 24.9062 17.5625C26.5938 16.3438 28.1406 14.6016 28.8438 12.6719L15.7578 9.32031ZM3.37813 12.5703C2.96172 13.5078 2.62031 14.4766 2.3625 15.4844L3.72813 15.8125C3.96484 14.8906 4.27812 14 4.66172 13.1406L3.37813 12.5703ZM2.04688 16.9922C1.88359 17.9688 1.79688 18.9766 1.79688 20V20.0703L3.20312 20.0547V20C3.20312 19.0547 3.28281 18.125 3.43359 17.2188L2.04688 16.9922ZM8.86719 28.2031L8.52344 29.5625L25.4766 33.8984L25.8203 32.5391L8.86719 28.2031Z" fill="#027B83"/>
</svg>
