<svg width="60" height="60" viewBox="0 0 60 60" fill="none" xmlns="http://www.w3.org/2000/svg">
<g opacity="0.2">
<path fill-rule="evenodd" clip-rule="evenodd" d="M12.495 12.3448C11.7697 12.0185 10.9445 11.9935 10.2009 12.2753C9.45716 12.5571 8.85581 13.1228 8.52899 13.8478L2.27999 27.7198C1.95346 28.4447 1.92802 29.2696 2.20928 30.0132C2.49053 30.7568 3.05547 31.3584 3.77999 31.6858L7.97999 33.5758C8.33909 33.738 8.72661 33.8278 9.12042 33.8402C9.51423 33.8525 9.90662 33.7872 10.2752 33.6479C10.6438 33.5086 10.9813 33.2981 11.2685 33.0283C11.5557 32.7586 11.7869 32.4349 11.949 32.0758L18.195 18.2068C18.5213 17.4815 18.5463 16.6564 18.2645 15.9127C17.9827 15.169 17.417 14.5676 16.692 14.2408L12.495 12.3448ZM7.24499 29.6098C7.48439 29.7276 7.74504 29.7961 8.01145 29.8111C8.27785 29.8262 8.54456 29.7874 8.79568 29.6973C9.04681 29.6071 9.27722 29.4673 9.4732 29.2862C9.66919 29.1051 9.82673 28.8865 9.93646 28.6433C10.0462 28.4 10.1059 28.1372 10.1119 27.8705C10.118 27.6037 10.0703 27.3385 9.97174 27.0905C9.87316 26.8426 9.72571 26.617 9.53815 26.4272C9.35059 26.2374 9.12676 26.0873 8.87999 25.9858C8.40283 25.7896 7.86809 25.7864 7.38865 25.977C6.90921 26.1676 6.52259 26.537 6.31042 27.0073C6.09824 27.4776 6.07711 28.012 6.25149 28.4975C6.42586 28.9831 6.7821 29.3819 7.24499 29.6098ZM57.195 32.0608C57.5634 31.921 57.9006 31.71 58.1874 31.4398C58.4743 31.1696 58.7051 30.8456 58.8666 30.4862C59.0282 30.1269 59.1174 29.7392 59.1291 29.3453C59.1409 28.9515 59.0749 28.5592 58.935 28.1908L53.547 13.9708C53.2652 13.227 52.6995 12.6255 51.9744 12.2987C51.2492 11.9718 50.4239 11.9463 49.68 12.2278L45.375 13.8598C45.0063 13.9993 44.6688 14.2101 44.3816 14.4802C44.0945 14.7502 43.8634 15.0742 43.7015 15.4336C43.5396 15.793 43.4502 16.1808 43.4383 16.5748C43.4263 16.9688 43.4922 17.3613 43.632 17.7298L49.02 31.9498C49.1595 32.3185 49.3703 32.656 49.6404 32.9431C49.9104 33.2303 50.2344 33.4614 50.5938 33.6233C50.9532 33.7851 51.341 33.8746 51.735 33.8865C52.129 33.8985 52.5214 33.8326 52.89 33.6928L57.195 32.0608ZM48.702 16.1428C48.2087 16.3298 47.8099 16.7051 47.5933 17.1861C47.3767 17.6671 47.36 18.2145 47.547 18.7078C47.734 19.2011 48.1093 19.5999 48.5903 19.8165C49.0713 20.0331 49.6187 20.0498 50.112 19.8628C50.3563 19.7702 50.5799 19.6304 50.7701 19.4514C50.9604 19.2724 51.1135 19.0577 51.2207 18.8195C51.328 18.5813 51.3873 18.3244 51.3952 18.0633C51.4031 17.8022 51.3596 17.5421 51.267 17.2978C51.1744 17.0535 51.0346 16.8299 50.8556 16.6397C50.6766 16.4494 50.4619 16.2963 50.2237 16.1891C49.9855 16.0818 49.7285 16.0225 49.4675 16.0146C49.2064 16.0067 48.9463 16.0502 48.702 16.1428Z" fill="#007B83"/>
<path fill-rule="evenodd" clip-rule="evenodd" d="M45.246 17.0698H45.222L45.153 17.0758L44.883 17.0998L43.881 17.1988C43.032 17.2888 41.862 17.4178 40.572 17.5888C37.95 17.9368 34.971 18.4348 33.156 19.0378C32.559 19.2388 31.77 19.6858 30.828 20.3728C29.814 21.1294 28.8444 21.9438 27.924 22.8118C26.1421 24.4908 24.4402 26.2527 22.824 28.0918C22.389 28.5808 22.464 29.0968 22.71 29.3608C23.487 30.1948 24.51 31.0228 25.662 31.3618C26.718 31.6708 28.026 31.6228 29.625 30.4228L29.667 30.3928L32.652 28.4668C33.279 28.0588 34.44 27.5848 35.622 28.2388C36.933 28.9648 38.901 30.7228 40.413 32.1478C41.2988 32.9846 42.1699 33.8367 43.026 34.7038C43.215 34.7338 43.542 34.7188 44.07 34.5388C44.8753 34.2382 45.6393 33.837 46.344 33.3448C47.3192 32.6866 48.2447 31.9577 49.113 31.1638L49.149 31.1278L49.158 31.1188M41.124 37.0468L41.301 37.2268L41.526 37.3438C42.717 37.9378 44.022 37.7218 45.03 37.3828C46.0833 36.9983 47.0834 36.4811 48.006 35.8438C49.1166 35.1005 50.1678 34.272 51.15 33.3658L51.201 33.3148L51.216 33.3028L51.222 33.2968L50.193 32.2078L51.225 33.2938C51.3678 33.1581 51.4825 32.9955 51.5625 32.8155C51.6425 32.6355 51.6863 32.4414 51.6913 32.2445C51.6963 32.0475 51.6625 31.8515 51.5917 31.6676C51.521 31.4837 51.4147 31.3156 51.279 31.1728C51.1433 31.03 50.9808 30.9153 50.8007 30.8353C50.6207 30.7553 50.4266 30.7115 50.2297 30.7065C50.0327 30.7015 49.8367 30.7353 49.6528 30.8061C49.469 30.8768 49.3008 30.9831 49.158 31.1188M41.124 37.0468L41.109 37.0348L41.07 36.9928L40.908 36.8278L40.314 36.2278C39.6695 35.5871 39.0164 34.955 38.355 34.3318C36.861 32.9218 35.274 31.5358 34.329 30.9568L34.278 30.9868L31.38 32.8558C29.064 34.5748 26.793 34.8208 24.816 34.2388C22.92 33.6808 21.456 32.4148 20.514 31.4038C19.023 29.8018 19.317 27.5248 20.574 26.1058C22.2557 24.1934 24.0267 22.3613 25.881 20.6158C26.8888 19.6664 27.9506 18.7759 29.061 17.9488C30.093 17.1958 31.179 16.5388 32.208 16.1938C34.326 15.4858 37.569 14.9638 40.179 14.6158C41.6509 14.4221 43.1261 14.2551 44.604 14.1148L44.886 14.0878L44.961 14.0818L44.985 14.0788C45.3767 14.0526 45.763 14.181 46.0611 14.4364C46.3591 14.6918 46.5452 15.0539 46.5794 15.4449C46.6135 15.836 46.493 16.2248 46.2438 16.528C45.9945 16.8312 45.6363 17.0277 45.246 17.0698" fill="#007B83"/>
<path fill-rule="evenodd" clip-rule="evenodd" d="M16.524 19.8717L15.933 18.4917L15.342 17.1117L15.462 17.0637L15.792 16.9227C17.4105 16.2371 19.0356 15.567 20.667 14.9127C22.041 14.3607 23.475 13.8027 24.669 13.3827C25.263 13.1727 25.812 12.9927 26.274 12.8607C26.673 12.7467 27.183 12.6147 27.606 12.6147C27.99 12.6147 28.395 12.7047 28.725 12.7917C29.085 12.8847 29.475 13.0167 29.874 13.1607C30.675 13.4517 31.578 13.8327 32.412 14.2017C33.3865 14.6363 34.3527 15.0894 35.31 15.5607L35.502 15.6567L35.553 15.6807L35.571 15.6897C35.9239 15.869 36.1917 16.1805 36.3159 16.5563C36.4401 16.9322 36.4108 17.3419 36.2342 17.6961C36.0577 18.0504 35.7483 18.3205 35.3734 18.4477C34.9985 18.5748 34.5886 18.5486 34.233 18.3747L34.218 18.3657L34.17 18.3447L33.99 18.2547C33.0661 17.8007 32.1339 17.3636 31.194 16.9437C30.384 16.5837 29.556 16.2357 28.851 15.9807C28.5549 15.872 28.2547 15.7749 27.951 15.6897C27.8415 15.6584 27.7303 15.6334 27.618 15.6147L27.591 15.6207C27.531 15.6327 27.381 15.6627 27.099 15.7437C26.721 15.8517 26.235 16.0137 25.665 16.2117C24.534 16.6137 23.142 17.1507 21.78 17.6967C20.1673 18.3433 18.5612 19.0063 16.962 19.6857L16.638 19.8237L16.524 19.8717ZM14.556 19.0827C14.4781 18.9017 14.4367 18.7071 14.434 18.5101C14.4314 18.3131 14.4676 18.1174 14.5406 17.9344C14.6136 17.7514 14.722 17.5845 14.8595 17.4433C14.997 17.3022 15.1609 17.1895 15.342 17.1117L15.933 18.4917L16.524 19.8717C16.1584 20.0279 15.7457 20.0325 15.3767 19.8845C15.0077 19.7366 14.7125 19.4482 14.556 19.0827ZM9.00599 30.5937C9.14129 30.4505 9.30349 30.3353 9.48332 30.2548C9.66315 30.1742 9.85709 30.1299 10.0541 30.1243C10.251 30.1187 10.4472 30.152 10.6313 30.2223C10.8154 30.2925 10.9838 30.3984 11.127 30.5337L10.098 31.6227L9.06599 32.7147C8.92274 32.5794 8.80755 32.4172 8.72701 32.2374C8.64646 32.0576 8.60213 31.8636 8.59656 31.6667C8.59099 31.4697 8.62428 31.2736 8.69453 31.0895C8.76478 30.9054 8.87062 30.7369 9.00599 30.5937ZM22.392 40.4697L30.351 43.4547C31.1603 43.7585 32.04 43.8227 32.8848 43.6397C33.7297 43.4566 34.5039 43.0342 35.115 42.4227L41.139 36.3987C41.4207 36.1175 41.8025 35.9596 42.2006 35.9599C42.5986 35.9602 42.9802 36.1186 43.2615 36.4002C43.5428 36.6819 43.7006 37.0638 43.7003 37.4618C43.7 37.8599 43.5416 38.2415 43.26 38.5227L37.236 44.5437C36.2176 45.5622 34.9275 46.2659 33.5198 46.5708C32.1122 46.8756 30.6465 46.7687 29.298 46.2627L21.168 43.2147L21.099 43.1787C20.6504 42.9306 20.2239 42.6445 19.824 42.3237C19.2718 41.8944 18.7296 41.4523 18.198 40.9977C16.998 39.9777 15.582 38.7177 14.232 37.4967C12.6404 36.0505 11.0613 34.5904 9.49499 33.1167L9.17999 32.8197L9.06599 32.7147L10.098 31.6227L11.127 30.5337L11.238 30.6357L11.55 30.9327C13.1032 32.3935 14.6693 33.8406 16.248 35.2737C17.589 36.4887 18.978 37.7247 20.136 38.7087C20.718 39.2007 21.234 39.6237 21.654 39.9447C22.035 40.2387 22.275 40.4007 22.392 40.4697ZM11.304 45.7497C11.5567 45.4473 11.8664 45.1976 12.2156 45.0149C12.5648 44.8322 12.9466 44.7201 13.3392 44.6849C13.7317 44.6498 14.1273 44.6924 14.5034 44.8103C14.8795 44.9281 15.2287 45.1189 15.531 45.3717L18.291 47.6787C18.7207 48.038 19.2424 48.2697 19.797 48.3477L23.361 48.8457C23.7512 48.9005 24.1268 49.0316 24.4664 49.2315C24.806 49.4314 25.1028 49.6963 25.34 50.0109C25.5772 50.3256 25.7501 50.6839 25.8489 51.0654C25.9476 51.4468 25.9703 51.844 25.9155 52.2342C25.8607 52.6245 25.7296 53.0001 25.5297 53.3396C25.3298 53.6792 25.0649 53.9761 24.7503 54.2133C24.4356 54.4505 24.0774 54.6234 23.6959 54.7221C23.3144 54.8209 22.9172 54.8435 22.527 54.7887L18.963 54.2878C17.2995 54.0545 15.7345 53.3603 14.445 52.2837L11.685 49.9767C11.0746 49.467 10.6915 48.7357 10.6201 47.9436C10.5487 47.1515 10.7946 46.3635 11.304 45.7527" fill="#007B83"/>
<path d="M14.844 18.3717L22.14 15.4497H29.436L43.656 17.0307L46.575 24.3237L49.494 31.6197L43.656 35.9997L33.444 44.7537L22.14 42.2097L15.933 37.4577L10.098 31.6197L14.844 18.3717Z" fill="#007B83"/>
</g>
<path fill-rule="evenodd" clip-rule="evenodd" d="M10.938 7.46992C10.2124 7.14377 9.38688 7.11921 8.64313 7.40163C7.89938 7.68405 7.29826 8.25034 6.972 8.97592L0.482995 23.3849C0.156461 24.1098 0.131027 24.9347 0.412282 25.6783C0.693537 26.422 1.25848 27.0236 1.983 27.3509L6.453 29.3639C6.81209 29.5261 7.19961 29.6159 7.59342 29.6283C7.98724 29.6406 8.37963 29.5753 8.74819 29.436C9.11676 29.2967 9.45427 29.0862 9.74147 28.8165C10.0287 28.5467 10.2599 28.223 10.422 27.8639L16.911 13.4519C17.2375 12.727 17.263 11.9022 16.9817 11.1585C16.7005 10.4149 16.1355 9.8133 15.411 9.48592L10.938 7.46992ZM5.619 25.2539C5.86365 25.3642 6.12763 25.4253 6.39588 25.4336C6.66412 25.4419 6.93137 25.3972 7.18237 25.3022C7.43336 25.2072 7.66319 25.0637 7.85873 24.8799C8.05427 24.6961 8.21168 24.4756 8.32199 24.2309C8.43231 23.9863 8.49335 23.7223 8.50164 23.454C8.50993 23.1858 8.4653 22.9186 8.37031 22.6676C8.27531 22.4166 8.13181 22.1867 7.94799 21.9912C7.76418 21.7957 7.54365 21.6382 7.299 21.5279C6.8049 21.3051 6.24254 21.2878 5.73562 21.4796C5.22871 21.6715 4.81878 22.0568 4.596 22.5509C4.37321 23.045 4.35584 23.6074 4.54769 24.1143C4.73954 24.6212 5.1249 25.0311 5.619 25.2539ZM57.045 27.7439C57.4134 27.6041 57.7506 27.3931 58.0374 27.1229C58.3243 26.8528 58.5551 26.5287 58.7166 26.1694C58.8782 25.81 58.9674 25.4223 58.9791 25.0284C58.9909 24.6346 58.9249 24.2423 58.785 23.8739L53.19 9.10192C53.0505 8.73327 52.8397 8.39572 52.5696 8.10858C52.2996 7.82143 51.9756 7.59032 51.6162 7.42845C51.2568 7.26658 50.869 7.17712 50.475 7.16519C50.081 7.15326 49.6885 7.21909 49.32 7.35892L44.739 9.09592C44.3706 9.23574 44.0334 9.44676 43.7465 9.71693C43.4597 9.98709 43.2289 10.3111 43.0674 10.6705C42.9058 11.0299 42.8166 11.4176 42.8048 11.8114C42.7931 12.2053 42.8591 12.5976 42.999 12.9659L48.597 27.7409C48.8788 28.4847 49.4445 29.0862 50.1696 29.413C50.8948 29.7399 51.7201 29.7654 52.464 29.4839L57.045 27.7439ZM48.234 11.4089C47.983 11.5041 47.7533 11.6477 47.5578 11.8316C47.3624 12.0156 47.2051 12.2362 47.0949 12.4809C46.9847 12.7257 46.9238 12.9897 46.9157 13.258C46.9076 13.5262 46.9524 13.7935 47.0475 14.0444C47.1426 14.2954 47.2863 14.5251 47.4702 14.7206C47.6542 14.916 47.8748 15.0733 48.1195 15.1835C48.3642 15.2937 48.6283 15.3546 48.8965 15.3627C49.1648 15.3708 49.432 15.3261 49.683 15.2309C50.1898 15.0388 50.5996 14.6532 50.8221 14.1589C51.0446 13.6647 51.0616 13.1023 50.8695 12.5954C50.6773 12.0886 50.2917 11.6789 49.7975 11.4563C49.3032 11.2338 48.7408 11.2168 48.234 11.4089Z" fill="#007B83"/>
<path fill-rule="evenodd" clip-rule="evenodd" d="M44.655 12.3209H44.679C44.8754 12.3038 45.0665 12.2481 45.2414 12.1571C45.4162 12.0661 45.5715 11.9416 45.6982 11.7906C45.825 11.6396 45.9208 11.4651 45.9801 11.2771C46.0394 11.0891 46.0611 10.8913 46.044 10.6949C46.0269 10.4985 45.9712 10.3074 45.8802 10.1325C45.7892 9.95765 45.6647 9.8024 45.5137 9.67565C45.3627 9.54889 45.1882 9.45312 45.0002 9.3938C44.8122 9.33448 44.6144 9.31276 44.418 9.3299H44.394L44.316 9.3389L44.025 9.3689L42.966 9.4709C42.075 9.5609 40.842 9.7019 39.48 9.8819C36.795 10.2359 33.468 10.7759 31.29 11.5019C30.234 11.8529 29.118 12.5339 28.05 13.3139C26.967 14.1059 25.845 15.0689 24.771 16.0679C22.8648 17.8658 21.0438 19.7518 19.314 21.7199C18.057 23.1419 17.766 25.4099 19.242 27.0179C20.202 28.0559 21.702 29.3699 23.646 29.9579C25.677 30.5669 28.017 30.3299 30.408 28.5539L33.405 26.6189L33.459 26.5859C33.888 26.8469 34.485 27.2969 35.199 27.8939C35.979 28.5479 36.825 29.3189 37.614 30.0599C38.5095 30.9039 39.3896 31.764 40.254 32.6399L40.419 32.8109L40.461 32.8529L40.476 32.8679L40.653 33.0479L40.878 33.1649C42.087 33.7649 43.416 33.5489 44.448 33.2009C45.522 32.8409 46.59 32.2289 47.499 31.6259C48.6371 30.8601 49.7153 30.0086 50.724 29.0789L50.778 29.0309L50.793 29.0159L50.796 29.0129C50.796 29.0129 50.532 28.0829 49.5 26.9969L48.687 28.0169L48 29.9999L40.476 32.8679L42 31.4999L41.196 29.3489C40.6931 28.8536 40.1851 28.3636 39.672 27.8789C38.862 27.1169 37.968 26.3039 37.122 25.5989C36.303 24.9089 35.451 24.2549 34.74 23.8649C33.558 23.2169 32.4 23.6969 31.776 24.1019L28.692 26.0939L28.65 26.1239C26.985 27.3719 25.617 27.4199 24.51 27.0869C23.31 26.7269 22.245 25.8509 21.45 24.9869C21.201 24.7169 21.129 24.1979 21.561 23.7089C23.2262 21.8131 24.9791 19.9961 26.814 18.2639C27.837 17.3129 28.863 16.4339 29.82 15.7349C30.798 15.0209 31.62 14.5559 32.241 14.3489C34.113 13.7249 37.176 13.2119 39.873 12.8549C41.3478 12.6611 42.8261 12.4941 44.307 12.3539L44.586 12.3269L44.655 12.3209Z" fill="#007B83"/>
<path d="M42.381 30.5309C41.9891 30.1337 41.5941 29.7397 41.196 29.3489L42 31.4999L40.476 32.8709L48 29.9999L48.687 28.0199L49.5 26.9999L48.735 26.8379L48.726 26.8439L48.684 26.8829L48.522 27.0329C47.6778 27.7946 46.7805 28.4954 45.837 29.1299C45.027 29.6699 44.208 30.1199 43.488 30.3599C42.93 30.5489 42.582 30.5639 42.381 30.5309Z" fill="#007B83"/>
<path fill-rule="evenodd" clip-rule="evenodd" d="M15.141 15.204L14.55 13.824L13.959 12.444L14.079 12.396L14.418 12.252C16.0813 11.5458 17.7513 10.8557 19.428 10.182C20.7898 9.63251 22.162 9.10942 23.544 8.61297C24.153 8.39697 24.72 8.21097 25.194 8.07597C25.602 7.95597 26.124 7.82397 26.55 7.82397C26.94 7.82397 27.351 7.91397 27.69 8.00397C28.056 8.10297 28.458 8.23497 28.866 8.38497C29.688 8.68497 30.615 9.07497 31.473 9.45297C32.4737 9.90019 33.4659 10.3663 34.449 10.851L34.647 10.947L34.701 10.974L34.719 10.983C35.075 11.1608 35.3459 11.4728 35.4719 11.8503C35.5979 12.2278 35.5688 12.6399 35.391 12.996C35.2132 13.352 34.9012 13.6229 34.5237 13.7489C34.1462 13.8749 33.734 13.8458 33.378 13.668L33.363 13.659L33.315 13.635L33.129 13.545C32.1783 13.0775 31.2191 12.6274 30.252 12.195C29.4602 11.8382 28.6568 11.5081 27.843 11.205C27.5382 11.0925 27.2289 10.9924 26.916 10.905C26.7987 10.8717 26.6795 10.8457 26.559 10.827L26.532 10.833C26.472 10.842 26.313 10.875 26.016 10.959C25.5195 11.1058 25.0273 11.2669 24.54 11.442C23.376 11.853 21.945 12.408 20.544 12.969C18.886 13.633 17.235 14.314 15.591 15.012L15.258 15.153L15.141 15.204ZM13.17 14.415C13.0139 14.0494 13.0092 13.6367 13.1572 13.2677C13.3051 12.8987 13.5935 12.6035 13.959 12.447L14.55 13.827L15.141 15.204C14.9598 15.2818 14.765 15.323 14.5679 15.3255C14.3707 15.3279 14.175 15.2914 13.9919 15.2182C13.8088 15.1449 13.642 15.0362 13.501 14.8984C13.3599 14.7606 13.2475 14.5963 13.17 14.415ZM7.46099 26.295C7.59629 26.1517 7.75849 26.0365 7.93832 25.956C8.11816 25.8754 8.31209 25.8311 8.50906 25.8255C8.70603 25.82 8.90216 25.8533 9.08626 25.9235C9.27036 25.9938 9.43881 26.0996 9.58199 26.235L8.54999 27.324L7.52099 28.416C7.37774 28.2807 7.26255 28.1185 7.18201 27.9386C7.10146 27.7588 7.05714 27.5649 7.05156 27.3679C7.04599 27.1709 7.07928 26.9748 7.14953 26.7907C7.21979 26.6066 7.32562 26.4382 7.46099 26.295ZM21.171 36.456L29.46 39.564C30.2689 39.8671 31.148 39.9309 31.9922 39.7479C32.8365 39.5649 33.6102 39.1428 34.221 38.532L40.491 32.262C40.7727 31.9807 41.1545 31.8229 41.5526 31.8231C41.9506 31.8234 42.3322 31.9818 42.6135 32.2635C42.8948 32.5451 43.0526 32.927 43.0523 33.325C43.052 33.7231 42.8937 34.1047 42.612 34.386L36.342 40.656C35.3235 41.6734 34.0338 42.3762 32.6268 42.6804C31.2197 42.9847 29.7548 42.8776 28.407 42.372L19.947 39.201L19.878 39.168C19.4193 38.9144 18.9837 38.6213 18.576 38.292C18.09 37.917 17.52 37.452 16.905 36.927C15.528 35.7496 14.1699 34.5505 12.831 33.33C11.1951 31.844 9.57201 30.344 7.96199 28.83L7.63499 28.524L7.52099 28.416L8.54999 27.324L9.58199 26.235L9.69299 26.34L10.014 26.643C11.6116 28.1443 13.2217 29.6324 14.844 31.107C16.224 32.358 17.649 33.627 18.843 34.641C19.443 35.148 19.974 35.58 20.403 35.913C20.799 36.216 21.048 36.384 21.171 36.453M11.01 42.864C11.265 42.5599 11.6302 42.3692 12.0254 42.3338C12.4207 42.2984 12.814 42.4211 13.119 42.675L15.996 45.075C16.6407 45.6132 17.4232 45.9603 18.255 46.077L21.963 46.599C22.1625 46.6209 22.3555 46.6825 22.5307 46.7804C22.706 46.8782 22.8598 47.0102 22.983 47.1685C23.1063 47.3269 23.1966 47.5084 23.2485 47.7022C23.3003 47.8961 23.3128 48.0984 23.2851 48.2971C23.2574 48.4959 23.1901 48.6871 23.0872 48.8593C22.9842 49.0316 22.8478 49.1815 22.6859 49.3001C22.524 49.4187 22.34 49.5036 22.1447 49.5498C21.9494 49.596 21.7469 49.6025 21.549 49.569L17.838 49.05C16.4516 48.8553 15.1474 48.2765 14.073 47.379L11.196 44.979C11.0445 44.8526 10.9195 44.6977 10.828 44.5229C10.7365 44.3482 10.6804 44.1571 10.6628 43.9607C10.6453 43.7642 10.6667 43.5662 10.7257 43.3781C10.7848 43.1899 10.8803 43.0152 11.007 42.864" fill="#007B83"/>
</svg>
