<svg width="60" height="60" viewBox="0 0 60 60" fill="none" xmlns="http://www.w3.org/2000/svg">
<path d="M55 42.505C54.9998 45.9241 53.8315 49.2406 51.6887 51.9049C49.5458 54.5693 46.5571 56.4216 43.2175 57.155L41.6225 52.37C43.0833 52.1299 44.4725 51.5686 45.6899 50.7264C46.9074 49.8842 47.9227 48.7822 48.6625 47.5H42.5C41.1739 47.5 39.9021 46.9732 38.9645 46.0355C38.0268 45.0979 37.5 43.8261 37.5 42.5V32.5C37.5 31.1739 38.0268 29.9021 38.9645 28.9645C39.9021 28.0268 41.1739 27.5 42.5 27.5H49.845C49.2349 22.6672 46.8823 18.2232 43.2286 15.0017C39.5748 11.7802 34.8711 10.0027 30 10.0027C25.1289 10.0027 20.4252 11.7802 16.7714 15.0017C13.1177 18.2232 10.7651 22.6672 10.155 27.5H17.5C18.8261 27.5 20.0979 28.0268 21.0355 28.9645C21.9732 29.9021 22.5 31.1739 22.5 32.5V42.5C22.5 43.8261 21.9732 45.0979 21.0355 46.0355C20.0979 46.9732 18.8261 47.5 17.5 47.5H10C8.67392 47.5 7.40215 46.9732 6.46447 46.0355C5.52678 45.0979 5 43.8261 5 42.5V30C5 16.1925 16.1925 5 30 5C43.8075 5 55 16.1925 55 30V42.505ZM50 42.5V32.5H42.5V42.5H50ZM10 32.5V42.5H17.5V32.5H10Z" fill="#027B83"/>
</svg>
