<svg width="40" height="40" viewBox="0 0 40 40" fill="none" xmlns="http://www.w3.org/2000/svg">
<path d="M5 18.3334L20 13.3334L35 18.3334M20 3.33337V35.8334" stroke="#005F83" stroke-width="1.5"/>
<path d="M5.32167 23.3334C6.75 30.4967 12.6267 34.1884 16.4983 35.8784C17.7 36.4034 18.3017 36.6667 20 36.6667C21.7 36.6667 22.3 36.4034 23.5017 35.8784C24.4667 35.4584 25.5533 34.9117 26.6667 34.2217M31.6667 29.84C33.605 27.38 35 24.16 35 19.985V17.3617C35 12.0317 35 9.36671 34.37 8.47004C33.7417 7.57504 31.2367 6.71671 26.225 5.00171L25.27 4.67504C22.6583 3.78004 21.3533 3.33337 20 3.33337C18.6467 3.33337 17.3417 3.78004 14.73 4.67504L13.775 5.00004C8.76333 6.71671 6.25833 7.57504 5.63 8.47004C5 9.36671 5 12.0334 5 17.3617V18.3334" stroke="#005F83" stroke-width="1.5" stroke-linecap="round"/>
</svg>
