<svg width="60" height="60" viewBox="0 0 60 60" fill="none" xmlns="http://www.w3.org/2000/svg">
<path d="M7.5 27.5L30 20L52.5 27.5M30 5V53.75" stroke="#007B83" stroke-width="1.5"/>
<path d="M7.9825 35C10.125 45.745 18.94 51.2825 24.7475 53.8175C26.55 54.605 27.4525 55 30 55C32.55 55 33.45 54.605 35.2525 53.8175C36.7 53.1875 38.33 52.3675 40 51.3325M47.5 44.76C50.4075 41.07 52.5 36.24 52.5 29.9775V26.0425C52.5 18.0475 52.5 14.05 51.555 12.705C50.6125 11.3625 46.855 10.075 39.3375 7.5025L37.905 7.0125C33.9875 5.67 32.03 5 30 5C27.97 5 26.0125 5.67 22.095 7.0125L20.6625 7.5C13.145 10.075 9.3875 11.3625 8.445 12.705C7.5 14.05 7.5 18.05 7.5 26.0425V27.5" stroke="#007B83" stroke-width="1.5" stroke-linecap="round"/>
</svg>
