<svg width="34" height="40" viewBox="0 0 34 40" fill="none" xmlns="http://www.w3.org/2000/svg">
<path d="M33.24 16.7725L11.65 38.9725C11.05 39.5875 10.055 38.875 10.445 38.11L18.13 22.945C18.1882 22.8305 18.2161 22.7031 18.2109 22.5748C18.2057 22.4465 18.1677 22.3216 18.1004 22.2122C18.0332 22.1028 17.939 22.0126 17.8269 21.95C17.7147 21.8874 17.5884 21.8547 17.46 21.855H1.295C1.14735 21.8549 1.00303 21.8112 0.880111 21.7294C0.757193 21.6476 0.661152 21.5313 0.604024 21.3952C0.546896 21.259 0.531223 21.1091 0.55897 20.964C0.586716 20.819 0.656649 20.6854 0.760001 20.58L20.785 0.292491C21.365 -0.295009 22.33 0.349991 22.0075 1.11249L16.265 14.65C16.2164 14.7648 16.1971 14.8898 16.209 15.0139C16.2208 15.138 16.2634 15.2572 16.3329 15.3606C16.4024 15.4641 16.4966 15.5486 16.607 15.6066C16.7173 15.6645 16.8404 15.6941 16.965 15.6925L32.6925 15.4975C32.8409 15.4951 32.9867 15.5368 33.1114 15.6173C33.2361 15.6979 33.3341 15.8136 33.393 15.9498C33.4519 16.0861 33.469 16.2368 33.4422 16.3828C33.4154 16.5288 33.3459 16.6635 33.2425 16.77" fill="#027B83"/>
</svg>
