<svg width="50" height="52" viewBox="0 0 50 52" fill="none" xmlns="http://www.w3.org/2000/svg">
<path d="M1.19 25C1.03373 25 0.878984 24.9692 0.734607 24.9094C0.59023 24.8496 0.459045 24.762 0.348543 24.6515C0.238041 24.541 0.150387 24.4098 0.0905836 24.2654C0.0307805 24.121 0 23.9663 0 23.81C0 12.695 7.615 3.36 17.9125 0.735C17.5327 1.22097 17.1789 1.72667 16.8525 2.25C15.0125 5.195 13.7325 9.0125 12.835 12.68C12.0386 16.0102 11.4442 19.3856 11.055 22.7875C10.9575 23.615 10.88 24.3625 10.82 25H1.19ZM50 23.81C50 23.9663 49.9692 24.121 49.9094 24.2654C49.8496 24.4098 49.762 24.541 49.6515 24.6515C49.541 24.762 49.4098 24.8496 49.2654 24.9094C49.121 24.9692 48.9663 25 48.81 25H39.18C39.1093 24.2616 39.0301 23.5241 38.9425 22.7875C38.5541 19.3856 37.9605 16.0103 37.165 12.68C36.265 9.0125 34.99 5.195 33.1475 2.25C32.8211 1.72667 32.4673 1.22097 32.0875 0.735C42.3875 3.36 50 12.695 50 23.81ZM23.125 45V25H14.5875C14.6375 24.4683 14.7017 23.8775 14.78 23.2275C15.095 20.5775 15.6225 17.065 16.48 13.57C17.34 10.05 18.505 6.68 20.03 4.235C21.575 1.7675 23.225 0.625 25 0.625C26.775 0.625 28.425 1.7675 29.9675 4.235C31.495 6.68 32.66 10.05 33.5225 13.57C34.3775 17.065 34.905 20.5775 35.22 23.2275C35.295 23.8792 35.3592 24.47 35.4125 25H26.875V45C26.875 46.8234 26.1507 48.572 24.8614 49.8614C23.572 51.1507 21.8234 51.875 20 51.875C18.1766 51.875 16.428 51.1507 15.1386 49.8614C13.8493 48.572 13.125 46.8234 13.125 45V42.5C13.125 42.0027 13.3225 41.5258 13.6742 41.1742C14.0258 40.8225 14.5027 40.625 15 40.625C15.4973 40.625 15.9742 40.8225 16.3258 41.1742C16.6775 41.5258 16.875 42.0027 16.875 42.5V45C16.875 45.8288 17.2042 46.6237 17.7903 47.2097C18.3763 47.7958 19.1712 48.125 20 48.125C20.8288 48.125 21.6237 47.7958 22.2097 47.2097C22.7958 46.6237 23.125 45.8288 23.125 45Z" fill="#027B83"/>
</svg>
